<svg width="151" height="141" viewBox="0 0 151 141" fill="none" xmlns="http://www.w3.org/2000/svg">
<g clip-path="url(#clip0_5_68)">
<path d="M-0.302555 100.113C-0.291921 100.168 -0.275152 100.222 -0.252563 100.273C-0.242564 100.303 -0.232565 100.343 -0.222567 100.373L11.1858 120.13L11.2158 120.16C11.2358 120.19 11.2557 120.22 11.2857 120.26C11.3243 120.302 11.368 120.339 11.4157 120.37C11.4457 120.39 11.4657 120.42 11.4957 120.44C11.5074 120.448 11.5216 120.452 11.5357 120.45C11.6489 120.514 11.776 120.548 11.9057 120.55H57.039L68.2074 139.887L68.2374 139.917C68.2574 139.947 68.2774 139.977 68.3074 140.017C68.346 140.059 68.3896 140.096 68.4374 140.127C68.4674 140.147 68.4873 140.177 68.5173 140.197C68.5291 140.205 68.5432 140.209 68.5573 140.207C68.6705 140.271 68.7976 140.305 68.9273 140.307H137.367C137.5 140.305 137.63 140.271 137.747 140.207L137.837 140.147C137.922 140.091 137.997 140.02 138.057 139.937C138.067 139.917 138.097 139.907 138.107 139.887L149.515 120.13C149.525 120.11 149.525 120.1 149.535 120.08C149.553 120.049 149.566 120.015 149.575 119.98C149.585 119.94 149.595 119.91 149.605 119.87C149.614 119.834 149.617 119.797 149.615 119.76C149.615 119.74 149.625 119.73 149.625 119.71C149.625 119.69 149.615 119.68 149.615 119.66C149.615 119.62 149.605 119.59 149.605 119.55C149.605 119.51 149.585 119.48 149.575 119.44C149.564 119.406 149.55 119.373 149.535 119.34C149.525 119.32 149.525 119.31 149.515 119.29L126.949 80.2062L138.107 60.869C138.117 60.849 138.117 60.839 138.127 60.819C138.145 60.7875 138.158 60.7539 138.167 60.719C138.177 60.679 138.187 60.649 138.197 60.609C138.205 60.573 138.209 60.536 138.207 60.499C138.207 60.479 138.217 60.469 138.217 60.449C138.217 60.4291 138.207 60.4191 138.207 60.3991C138.207 60.3591 138.197 60.3291 138.197 60.2891C138.197 60.2491 138.177 60.2191 138.167 60.1791C138.156 60.1451 138.142 60.1117 138.127 60.0791C138.117 60.0591 138.117 60.0491 138.107 60.0291L103.902 0.747808C103.882 0.717812 103.852 0.697815 103.832 0.66782C103.798 0.622445 103.761 0.579048 103.722 0.537839C103.681 0.504506 103.638 0.474419 103.592 0.447852C103.549 0.418617 103.502 0.395094 103.452 0.377862C103.394 0.358733 103.333 0.345338 103.272 0.337868C103.242 0.337868 103.212 0.317871 103.172 0.317871H80.3556C80.3356 0.317871 80.3256 0.32787 80.3056 0.32787C80.2656 0.32787 80.2356 0.337868 80.1956 0.337868L80.0757 0.367864C80.0457 0.377862 80.0057 0.397859 79.9757 0.407858C79.9457 0.417856 79.9457 0.417856 79.9257 0.427855C79.9143 0.440205 79.9007 0.450371 79.8857 0.457851C79.8533 0.478 79.8232 0.501456 79.7957 0.52784C79.7666 0.551924 79.7398 0.578706 79.7157 0.607829C79.6957 0.637824 79.6657 0.66782 79.6457 0.697815C79.6334 0.709209 79.6232 0.722763 79.6157 0.737809L57.049 39.8321H34.7323C34.7123 39.8321 34.7023 39.8421 34.6823 39.8421C34.6423 39.8421 34.6123 39.8521 34.5723 39.8521C34.5323 39.8521 34.4923 39.8721 34.4623 39.8821C34.4283 39.8937 34.395 39.907 34.3624 39.9221C34.3424 39.9321 34.3324 39.9321 34.3124 39.9421C34.2924 39.9521 34.2924 39.9621 34.2724 39.9721C34.24 39.9922 34.2099 40.0157 34.1824 40.042C34.1533 40.0661 34.1265 40.0929 34.1024 40.122C34.0824 40.152 34.0524 40.182 34.0324 40.212C34.0201 40.2234 34.0099 40.237 34.0024 40.252L-0.212568 99.5333C-0.227108 99.5651 -0.237201 99.5988 -0.242564 99.6333C-0.263753 99.6851 -0.280478 99.7386 -0.292557 99.7933C-0.308428 99.845 -0.315194 99.8992 -0.312554 99.9533C-0.314209 100.007 -0.310862 100.06 -0.302555 100.113ZM102.682 2.01762L135.927 59.5992H115.071L81.8154 2.01762H102.682ZM114.091 99.1134H93.2237L115.061 61.2789H135.927L114.091 99.1134ZM80.3556 2.8575L113.601 60.439L91.7639 98.2735L81.3355 80.1962L92.5038 60.859C92.5138 60.839 92.5138 60.829 92.5238 60.809C92.5414 60.7775 92.5548 60.7439 92.5638 60.709C92.5738 60.669 92.5838 60.639 92.5938 60.599C92.6021 60.563 92.6055 60.526 92.6038 60.489C92.6038 60.469 92.6138 60.459 92.6138 60.439C92.6138 60.4191 92.6038 60.4091 92.6038 60.3891C92.6038 60.3491 92.5938 60.3191 92.5938 60.2791C92.5938 60.2391 92.5738 60.2091 92.5638 60.1691C92.5522 60.1351 92.5389 60.1017 92.5238 60.0691C92.5138 60.0491 92.5138 60.0391 92.5038 60.0191L81.0855 40.262C81.0655 40.232 81.0355 40.212 81.0155 40.182C80.9813 40.1366 80.9446 40.0933 80.9055 40.052C80.8646 40.0187 80.8211 39.9886 80.7755 39.9621C80.731 39.9348 80.6841 39.9113 80.6356 39.8921C80.581 39.8724 80.5235 39.8623 80.4656 39.8621C80.4356 39.8621 80.3956 39.8421 80.3656 39.8421H59.0087L80.3556 2.8575ZM57.549 41.5318H79.8757L90.3141 59.5992H46.6306L36.1921 41.5318H57.549ZM34.7323 42.3717L45.1608 60.439L11.9157 118.021L1.48718 99.9533L34.7323 42.3717ZM13.3854 118.86L46.6306 61.2789H90.3141L79.8757 79.3563H57.549C57.529 79.3563 57.519 79.3663 57.499 79.3663C57.459 79.3663 57.429 79.3763 57.389 79.3763L57.269 79.4063C57.239 79.4163 57.199 79.4363 57.169 79.4463C57.139 79.4563 57.139 79.4563 57.119 79.4663C57.1076 79.4786 57.0941 79.4888 57.079 79.4963C57.0467 79.5164 57.0165 79.5399 56.989 79.5662C56.9599 79.5903 56.9331 79.6171 56.909 79.6462C56.889 79.6762 56.8591 79.7062 56.8391 79.7362C56.8291 79.7462 56.8091 79.7562 56.8091 79.7762L45.4007 99.5333C45.3862 99.5651 45.3761 99.5988 45.3707 99.6333C45.3496 99.6851 45.3328 99.7386 45.3207 99.7933C45.3121 99.8461 45.3088 99.8997 45.3108 99.9533C45.3091 100.007 45.3124 100.06 45.3207 100.113C45.3314 100.168 45.3481 100.222 45.3707 100.273C45.3807 100.303 45.3907 100.343 45.4007 100.373L56.0792 118.86H13.3854ZM136.907 138.618H70.4171L80.8455 120.55H147.336L136.907 138.618ZM68.9573 137.778L47.1205 99.9533L57.559 81.8759L79.3958 119.7L68.9573 137.778ZM147.336 118.86H80.8455L59.0087 81.036H79.8757L91.044 100.373L91.074 100.403C91.0939 100.439 91.1174 100.472 91.144 100.503C91.1826 100.545 91.2263 100.582 91.274 100.613C91.304 100.633 91.324 100.663 91.354 100.683C91.3657 100.691 91.3799 100.695 91.394 100.693C91.5072 100.756 91.6343 100.791 91.7639 100.793H114.581C114.713 100.791 114.844 100.757 114.961 100.693L115.051 100.633C115.135 100.576 115.21 100.505 115.27 100.423C115.28 100.403 115.31 100.393 115.32 100.373L125.999 81.8759L147.336 118.86Z" fill="white"/>
</g>
<defs>
<clipPath id="clip0_5_68">
<rect width="149.938" height="140" fill="white" transform="translate(0.6875 0.3125)"/>
</clipPath>
</defs>
</svg>
